<svg width="142" height="48" viewBox="0 0 142 48" fill="none" xmlns="http://www.w3.org/2000/svg">
<path d="M12.5568 17.1818V20.0227H1.25V17.1818H12.5568ZM4.54545 11.9545H7.89773V32.75C7.89773 33.697 8.03504 34.4072 8.30966 34.8807C8.59375 35.3447 8.9536 35.6572 9.3892 35.8182C9.83428 35.9697 10.303 36.0455 10.7955 36.0455C11.1648 36.0455 11.4678 36.0265 11.7045 35.9886C11.9413 35.9413 12.1307 35.9034 12.2727 35.875L12.9545 38.8864C12.7273 38.9716 12.41 39.0568 12.0028 39.142C11.5956 39.2367 11.0795 39.2841 10.4545 39.2841C9.50758 39.2841 8.57955 39.0805 7.67045 38.6733C6.77083 38.2661 6.02273 37.6458 5.42614 36.8125C4.83902 35.9792 4.54545 34.928 4.54545 33.6591V11.9545ZM26.5128 39.4545C24.4105 39.4545 22.5971 38.9905 21.0724 38.0625C19.5573 37.125 18.3878 35.8182 17.5639 34.142C16.7495 32.4564 16.3423 30.4962 16.3423 28.2614C16.3423 26.0265 16.7495 24.0568 17.5639 22.3523C18.3878 20.6383 19.5336 19.303 21.0014 18.3466C22.4787 17.3807 24.2022 16.8977 26.1719 16.8977C27.3082 16.8977 28.4304 17.0871 29.5384 17.4659C30.6463 17.8447 31.6548 18.4602 32.5639 19.3125C33.473 20.1553 34.1974 21.2727 34.7372 22.6648C35.277 24.0568 35.5469 25.7708 35.5469 27.8068V29.2273H18.7287V26.3295H32.1378C32.1378 25.0985 31.8916 24 31.3991 23.0341C30.9162 22.0682 30.2249 21.3059 29.3253 20.7472C28.4351 20.1884 27.384 19.9091 26.1719 19.9091C24.8366 19.9091 23.6813 20.2405 22.706 20.9034C21.7401 21.5568 20.9967 22.4091 20.4759 23.4602C19.955 24.5114 19.6946 25.6383 19.6946 26.8409V28.7727C19.6946 30.4205 19.9787 31.8172 20.5469 32.9631C21.1245 34.0994 21.9247 34.9659 22.9474 35.5625C23.9702 36.1496 25.1586 36.4432 26.5128 36.4432C27.3935 36.4432 28.1889 36.3201 28.8991 36.0739C29.6188 35.8182 30.2391 35.4394 30.7599 34.9375C31.2808 34.4261 31.6832 33.7917 31.9673 33.0341L35.206 33.9432C34.8651 35.0417 34.2921 36.0076 33.4872 36.8409C32.6823 37.6648 31.688 38.3087 30.5043 38.7727C29.3205 39.2273 27.9901 39.4545 26.5128 39.4545ZM49.5099 39.4545C47.4645 39.4545 45.7031 38.9716 44.2259 38.0057C42.7486 37.0398 41.6122 35.7093 40.8168 34.0142C40.0213 32.3191 39.6236 30.3826 39.6236 28.2045C39.6236 25.9886 40.0308 24.0331 40.8452 22.3381C41.669 20.6335 42.8149 19.303 44.2827 18.3466C45.7599 17.3807 47.4834 16.8977 49.4531 16.8977C50.9872 16.8977 52.3698 17.1818 53.6009 17.75C54.8319 18.3182 55.8404 19.1136 56.6264 20.1364C57.4124 21.1591 57.9001 22.3523 58.0895 23.7159H54.7372C54.4815 22.7216 53.9134 21.8409 53.0327 21.0739C52.1615 20.2973 50.9872 19.9091 49.5099 19.9091C48.2031 19.9091 47.0573 20.25 46.0724 20.9318C45.0971 21.6042 44.3348 22.5559 43.7855 23.7869C43.2457 25.0085 42.9759 26.4432 42.9759 28.0909C42.9759 29.7765 43.241 31.2443 43.7713 32.4943C44.3111 33.7443 45.0687 34.715 46.044 35.4062C47.0289 36.0975 48.1842 36.4432 49.5099 36.4432C50.3812 36.4432 51.1719 36.2917 51.8821 35.9886C52.5923 35.6856 53.1937 35.25 53.6861 34.6818C54.1785 34.1136 54.5289 33.4318 54.7372 32.6364H58.0895C57.9001 33.9242 57.4313 35.0843 56.6832 36.1165C55.9446 37.1392 54.9645 37.9536 53.7429 38.5597C52.5308 39.1562 51.1198 39.4545 49.5099 39.4545ZM66.3423 25.875V39H62.9901V9.90909H66.3423V20.5909H66.6264C67.1378 19.464 67.9048 18.5691 68.9276 17.9062C69.9598 17.2339 71.3329 16.8977 73.0469 16.8977C74.5336 16.8977 75.8357 17.196 76.9531 17.7926C78.0705 18.3797 78.937 19.2841 79.5526 20.5057C80.1776 21.7178 80.4901 23.2614 80.4901 25.1364V39H77.1378V25.3636C77.1378 23.6307 76.688 22.2907 75.7884 21.3438C74.8982 20.3873 73.6624 19.9091 72.081 19.9091C70.9825 19.9091 69.9976 20.1411 69.1264 20.6051C68.2647 21.0691 67.5829 21.7462 67.081 22.6364C66.5885 23.5265 66.3423 24.6061 66.3423 25.875Z" fill="white"/>
<line x1="122.109" y1="29.6182" x2="140.56" y2="41.6002" stroke="#F56F46" stroke-width="5"/>
<circle cx="108.5" cy="25.5" r="16" fill="#F56F46" stroke="#F56F46"/>
</svg>
